<?xml version="1.0" encoding="UTF-8"?>
<svg width="1623.1" height="200" version="1.1" viewBox="0 0 429.46 52.917" xmlns="http://www.w3.org/2000/svg">
 <g transform="translate(-132.29 -316.65)">
  <g transform="matrix(.39802 0 0 .39802 476.97 -396.38)">
   <g transform="scale(1.4426 .69319)" aria-label="luciftias">
    <path d="m-561.84 2775.7q-20.932-0.4868-29.694-9.0056t-8.7622-26.53v-151.88l22.636-3.8943v152.12q0 5.5981 0.97358 9.249t3.1641 5.8415q2.1906 2.1906 5.8415 3.4075 3.6509 0.9736 9.0056 1.7038z"/>
    <path d="m-449.5 2769.6q-7.7886 1.9472-20.689 4.1377-12.657 2.1906-29.451 2.1906-14.604 0-24.583-4.1377-9.9792-4.3811-16.064-12.17-6.0849-7.7886-8.7622-18.255-2.6773-10.709-2.6773-23.609v-71.071h22.636v66.203q0 23.122 7.3018 33.102t24.583 9.9792q3.6509 0 7.5452-0.2434t7.3018-0.4868q3.4075-0.4868 6.0849-0.7302 2.9207-0.4868 4.1377-0.9735v-106.85h22.636z"/>
    <path d="m-367.38 2776.1q-15.334 0-27.017-4.8679-11.44-4.8679-19.472-13.63-7.7886-8.7622-11.683-20.689-3.8943-12.17-3.8943-26.774t4.1377-26.773q4.3811-12.17 12.17-20.932 7.7886-9.0056 18.985-13.874 11.44-5.1113 25.313-5.1113 8.5188 0 17.038 1.4604 8.5188 1.4604 16.307 4.6245l-5.1113 19.228q-5.1113-2.434-11.926-3.8943-6.5717-1.4604-14.117-1.4604-18.985 0-29.207 11.926-9.9792 11.926-9.9792 34.805 0 10.223 2.1906 18.742 2.434 8.5188 7.3018 14.604 5.1113 6.0848 12.9 9.4924 7.7886 3.1641 18.985 3.1641 9.0056 0 16.307-1.7038 7.3018-1.7037 11.44-3.6509l3.1641 18.985q-1.9472 1.217-5.5981 2.434-3.6509 0.9736-8.2754 1.7037-4.6245 0.9736-9.9792 1.4604-5.1113 0.7302-9.9792 0.7302z"/>
    <path d="m-296.38 2773.2h-22.636v-126.57h22.636zm-11.44-149.44q-6.0849 0-10.466-3.8943-4.1377-4.1377-4.1377-10.953 0-6.815 4.1377-10.709 4.3811-4.1377 10.466-4.1377 6.0849 0 10.223 4.1377 4.3811 3.8944 4.3811 10.709 0 6.8151-4.3811 10.953-4.1377 3.8943-10.223 3.8943z"/>
    <path d="m-228.31 2584.3q9.9792 0 17.038 1.4604 7.3018 1.4604 10.223 2.6773l-4.1377 19.472q-2.9207-1.4603-8.2754-2.6773-5.3547-1.4604-13.143-1.4604-15.821 0-22.149 8.7622-6.3283 8.5189-6.3283 23.123v10.953h48.679v18.985h-48.679v107.58h-22.636v-138q0-24.34 11.926-37.483 11.926-13.387 37.483-13.387z"/>
    <path d="m-166.82 2646.7h47.949v18.985h-47.949v58.415q0 9.4924 1.4604 15.821 1.4604 6.0849 4.3811 9.7358 2.9207 3.4076 7.3018 4.8679 4.3811 1.4604 10.223 1.4604 10.223 0 16.307-2.1905 6.3283-2.434 8.7622-3.4076l4.3811 18.741q-3.4075 1.7038-11.926 4.1378-8.5188 2.6773-19.472 2.6773-12.9 0-21.419-3.1641-8.2754-3.4076-13.387-9.9792-5.1113-6.5717-7.3018-16.064-1.9472-9.7358-1.9472-22.392v-112.94l22.636-3.8943z"/>
    <path d="m-74.274 2773.2h-22.636v-126.57h22.636zm-11.44-149.44q-6.0849 0-10.466-3.8943-4.1377-4.1377-4.1377-10.953 0-6.815 4.1377-10.709 4.3811-4.1377 10.466-4.1377t10.223 4.1377q4.3811 3.8944 4.3811 10.709 0 6.8151-4.3811 10.953-4.1377 3.8943-10.223 3.8943z"/>
    <path d="m-2.6353 2756.9q8.032 0 14.117-0.2434 6.3283-0.4868 10.466-1.4604v-37.726q-2.434-1.217-8.032-1.9472-5.3547-0.9735-13.143-0.9735-5.1113 0-10.953 0.7301-5.5981 0.7302-10.466 3.1642-4.6245 2.1905-7.7886 6.3282-3.1641 3.8944-3.1641 10.466 0 12.17 7.7886 17.038 7.7886 4.6245 21.175 4.6245zm-1.9472-113.42q13.63 0 22.879 3.6509 9.4924 3.4076 15.09 9.9792 5.8415 6.3283 8.2754 15.334 2.434 8.7622 2.434 19.472v79.103q-2.9207 0.4868-8.2754 1.4604-5.1113 0.7302-11.683 1.4603-6.5717 0.7302-14.36 1.217-7.5452 0.7302-15.09 0.7302-10.709 0-19.715-2.1906-9.0056-2.1905-15.577-6.815-6.5717-4.8679-10.223-12.657-3.6509-7.7886-3.6509-18.741 0-10.466 4.1377-18.011 4.3811-7.5452 11.683-12.17 7.3018-4.6245 17.038-6.815 9.7358-2.1906 20.445-2.1906 3.4075 0 7.0585 0.4868 3.6509 0.2434 6.8151 0.9736 3.4075 0.4868 5.8415 0.9736t3.4075 0.7302v-6.3283q0-5.5981-1.217-10.953-1.217-5.5981-4.3811-9.7358-3.1641-4.3811-8.7622-6.815-5.3547-2.6774-14.117-2.6774-11.196 0-19.715 1.7038-8.2754 1.4604-12.413 3.1641l-2.6773-18.741q4.3811-1.9472 14.604-3.6509 10.223-1.9472 22.149-1.9472z"/>
    <path d="m97.508 2756.9q13.874 0 20.445-3.6509 6.8151-3.651 6.8151-11.683 0-8.2754-6.5717-13.143-6.5717-4.8679-21.662-10.953-7.3018-2.9207-14.117-5.8415-6.5717-3.1641-11.44-7.3018t-7.7886-9.9792-2.9207-14.36q0-16.794 12.413-26.53 12.413-9.9792 33.832-9.9792 5.3547 0 10.709 0.7302 5.3547 0.4868 9.9792 1.4604 4.6245 0.7302 8.032 1.7037 3.6509 0.9736 5.5981 1.7038l-4.1377 19.472q-3.6509-1.9472-11.44-3.8943-7.7886-2.1906-18.741-2.1906-9.4924 0-16.551 3.8943-7.0585 3.651-7.0585 11.683 0 4.1377 1.4604 7.3019 1.7038 3.1641 4.8679 5.8414 3.4075 2.434 8.2754 4.6245 4.8679 2.1906 11.683 4.6245 9.0056 3.4076 16.064 6.8151 7.0584 3.1641 11.926 7.5453 5.1113 4.3811 7.7886 10.709 2.6774 6.0849 2.6774 15.09 0 17.524-13.143 26.53-12.9 9.0056-36.996 9.0056-16.794 0-26.287-2.9207-9.4924-2.6774-12.9-4.1378l4.1377-19.472q3.8943 1.4604 12.413 4.3811 8.5188 2.9208 22.636 2.9208z"/>
   </g>
  </g>
 </g>
</svg>
